<svg width="16" height="16" viewBox="0 0 16 16" fill="none" xmlns="http://www.w3.org/2000/svg">
<path d="M10.6834 0C10.9612 0.115643 11.3155 0.0299822 11.6161 0.0542529C14.3321 0.270548 15.8168 1.99377 15.9639 4.66712C16.0418 6.08053 15.9711 7.52964 15.9597 8.93591C15.9454 10.7384 16.1825 12.8485 14.9505 14.329C13.3673 16.2314 11.1805 15.9352 8.94947 15.953C5.24441 15.983 0.460966 16.6697 0.0760345 11.6057C0.0531814 11.3044 0.136738 10.9511 0.0224725 10.6727C0.0753203 8.90664 -0.0482293 7.09776 0.0224725 5.3367C0.0867469 3.7327 0.303137 2.22505 1.59362 1.12002C2.66343 0.203446 4.01034 0.0549667 5.35296 0.000714542H10.6842L10.6834 0ZM5.44794 1.45696C2.51774 1.58117 1.67646 2.25361 1.51649 5.20536C1.41294 7.11418 1.27439 10.1195 1.58291 11.964C2.07854 14.9229 4.91089 14.496 7.19335 14.5118C8.5074 14.521 9.87002 14.5903 11.1912 14.516C14.9084 14.3069 14.4992 11.6385 14.5185 8.7753C14.5278 7.44683 14.6042 6.0584 14.5199 4.7228C14.3499 2.02946 12.8602 1.52691 10.4442 1.4384C8.85234 1.37986 7.03909 1.38843 5.44651 1.45624L5.44794 1.45696Z" fill="white"/>
<path d="M12.1124 7.99444C12.1124 10.2637 10.2749 12.1033 8.00814 12.1033C5.7414 12.1033 3.90387 10.2637 3.90387 7.99444C3.90387 5.72512 5.7414 3.88554 8.00814 3.88554C10.2749 3.88554 12.1124 5.72512 12.1124 7.99444ZM10.6677 7.99444C10.6677 6.52392 9.47645 5.33179 8.00743 5.33179C6.5384 5.33179 5.34718 6.52392 5.34718 7.99444C5.34718 9.46496 6.5384 10.6571 8.00743 10.6571C9.47645 10.6571 10.6677 9.46496 10.6677 7.99444Z" fill="white"/>
<path d="M12.274 4.69417C12.806 4.69417 13.2374 4.2624 13.2374 3.72977C13.2374 3.19714 12.806 2.76537 12.274 2.76537C11.7419 2.76537 11.3106 3.19714 11.3106 3.72977C11.3106 4.2624 11.7419 4.69417 12.274 4.69417Z" fill="white"/>
</svg>
