<svg width="16" height="16" viewBox="0 0 16 16" fill="none" xmlns="http://www.w3.org/2000/svg">
<path d="M13 0C14.6569 0 16 1.34315 16 3V13C16 14.6569 14.6569 16 13 16H3C1.34315 16 0 14.6569 0 13V3C0 1.34315 1.34315 0 3 0H13ZM2.36523 13.4375H4.74707V5.79004H2.36523V13.4375ZM12.0508 5.80664C11.5057 5.60418 10.7261 5.55871 10.1602 5.67773C9.50858 5.81497 8.86218 6.23737 8.55469 6.83691L8.50293 6.84668V5.81543L8.47754 5.79004H6.24805L6.22266 5.81543V13.4121L6.24805 13.4375H8.5791L8.60449 13.3799L8.60352 9.26953C8.64867 8.50552 8.95611 7.7611 9.81934 7.70117C10.851 7.62981 11.187 8.17921 11.2539 9.13477L11.2529 13.3799L11.2793 13.4375H13.627L13.6523 13.3799C13.629 12.0163 13.6802 10.6494 13.6523 9.28613C13.6248 7.93608 13.517 6.35141 12.0508 5.80664ZM3.55957 2C2.79775 2 2.17969 2.61806 2.17969 3.37988C2.17992 4.14151 2.79789 4.75879 3.55957 4.75879C4.32116 4.75868 4.93824 4.14144 4.93848 3.37988C4.93848 2.61812 4.32131 2.00011 3.55957 2Z" fill="white"/>
</svg>
