<svg width="16" height="16" viewBox="0 0 16 16" fill="none" xmlns="http://www.w3.org/2000/svg">
<path d="M1.02019 0.00553993L14.9352 0C15.4843 0.0485164 15.9478 0.476266 16 1.03143V14.9353C15.9579 15.5019 15.4947 15.9461 14.9352 16H1.06484C0.510681 15.9501 0.0513703 15.51 0 14.9519V1.03143C0.0496915 0.489697 0.486843 0.0710119 1.02019 0.00553993ZM4.93877 3.57661C4.93877 2.81479 4.32115 2.19717 3.55932 2.19717C2.7975 2.19717 2.17988 2.81479 2.17988 3.57661C2.17988 4.33844 2.7975 4.95606 3.55932 4.95606C4.32115 4.95606 4.93877 4.33844 4.93877 3.57661ZM8.50313 7.04411V6.01267L8.47795 5.98749H6.24753L6.22235 6.01267V13.6096L6.24753 13.6348H8.57867L8.60469 13.5769L8.60318 9.46657C8.64834 8.70256 8.95572 7.95837 9.81895 7.89843C10.8511 7.82692 11.1875 8.37638 11.2543 9.33227L11.2528 13.5767L11.2788 13.6346H13.6266L13.6526 13.5767C13.6292 12.213 13.6804 10.8465 13.6526 9.48319C13.625 8.13313 13.5169 6.54854 12.0507 6.00378C11.5056 5.80132 10.7265 5.75633 10.1606 5.87535C9.50888 6.01251 8.86255 6.43405 8.555 7.0337L8.50346 7.04411H8.50313ZM4.74655 5.98766H2.36522V13.635H4.74655V5.98766Z" fill="#F5F5F5"/>
</svg>
