<svg width="18" height="16" viewBox="0 0 18 16" fill="none" xmlns="http://www.w3.org/2000/svg">
<path fill-rule="evenodd" clip-rule="evenodd" d="M13.5741 0.101521C12.6179 -1.19209e-05 11.4127 -6.59159e-06 9.87509 1.08584e-07H8.12491C6.58734 -6.59159e-06 5.38209 -1.19209e-05 4.42589 0.101521C3.45009 0.205133 2.65944 0.420369 1.98438 0.901048C1.5757 1.19205 1.21631 1.54428 0.919383 1.94481C0.784021 2.1274 0.668102 2.32025 0.569194 2.52551C0.266303 3.15409 0.1312 3.88297 0.0653565 4.75215C-3.77381e-06 5.61496 -2.03498e-06 6.6726 1.10794e-07 7.97667V8.03713C-6.72572e-06 9.54403 -1.21635e-05 10.7252 0.103586 11.6624C0.209308 12.6187 0.428923 13.3936 0.919383 14.0552C1.21631 14.4557 1.5757 14.808 1.98438 15.099C2.65944 15.5796 3.45009 15.7949 4.42589 15.8985C5.38208 16 6.5873 16 8.12483 16H9.87511C11.4126 16 12.6179 16 13.5741 15.8985C14.5499 15.7949 15.3406 15.5796 16.0156 15.099C16.4243 14.808 16.7837 14.4557 17.0806 14.0552C17.5711 13.3936 17.7907 12.6187 17.8964 11.6624C18 10.7253 18 9.54407 18 8.03721V7.97612C18 6.66316 18 5.59988 17.9332 4.73357C17.8659 3.86056 17.7278 3.12926 17.4178 2.49884C17.3218 2.30346 17.2101 2.11942 17.0806 1.94481C16.7837 1.54428 16.4243 1.19205 16.0156 0.901048C15.3406 0.420368 14.5499 0.205133 13.5741 0.101521ZM2.72253 1.89676C3.14784 1.59392 3.6922 1.4174 4.56115 1.32513C5.44185 1.23161 6.57915 1.23077 8.16279 1.23077H9.83721C11.4209 1.23077 12.5581 1.23161 13.4388 1.32513C14.3078 1.4174 14.8522 1.59392 15.2775 1.89676C15.5794 2.11175 15.8449 2.37194 16.0643 2.66781L14.476 4.2245C13.0681 5.60432 12.0559 6.59449 11.1828 7.24732C10.3243 7.88931 9.67447 8.14682 9 8.14682C8.32553 8.14682 7.67575 7.88931 6.81719 7.24732C5.94414 6.59449 4.93193 5.60432 3.52403 4.2245L1.93567 2.66781C2.15508 2.37194 2.42061 2.11175 2.72253 1.89676ZM16.5661 3.91662C16.6167 4.17937 16.6542 4.47911 16.681 4.82629C16.7438 5.64097 16.7442 6.65832 16.7442 8C16.7442 9.55206 16.7433 10.6667 16.6479 11.5298C16.5538 12.3814 16.3736 12.9149 16.0646 13.3318C15.8452 13.6278 15.5795 13.8882 15.2775 14.1032C14.8522 14.4061 14.3078 14.5826 13.4388 14.6749C12.5581 14.7684 11.4209 14.7692 9.83721 14.7692H8.16279C6.57915 14.7692 5.44185 14.7684 4.56115 14.6749C3.6922 14.5826 3.14784 14.4061 2.72253 14.1032C2.42047 13.8882 2.15482 13.6278 1.93536 13.3318C1.62636 12.9149 1.44624 12.3814 1.35209 11.5298C1.25668 10.6667 1.25581 9.55206 1.25581 8C1.25581 6.66786 1.25621 5.65533 1.31772 4.84327C1.34457 4.4889 1.38249 4.18368 1.4339 3.91661L2.67 5.12807C4.03656 6.46738 5.1075 7.51697 6.05543 8.2258C7.0257 8.95133 7.94055 9.37759 9 9.37759C10.0594 9.37759 10.9743 8.95133 11.9446 8.2258C12.8925 7.51698 13.9634 6.46739 15.33 5.12809L16.5661 3.91662Z" fill="white"/>
</svg>
