<svg width="14" height="16" viewBox="0 0 14 16" fill="none" xmlns="http://www.w3.org/2000/svg">
<path d="M13.9928 4.00901C13.081 4.00901 12.2409 3.70617 11.566 3.19423C10.7906 2.60658 10.2341 1.74854 10.0403 0.757098C9.99 0.511942 9.96487 0.259576 9.96128 0H7.35856V7.14196V11.0536C7.35856 12.0991 6.68005 12.986 5.73948 13.2961C5.46664 13.3862 5.17227 13.4295 4.86712 13.4114C4.47581 13.3898 4.10963 13.2708 3.79013 13.0798C3.11162 12.6724 2.65211 11.9333 2.63775 11.0861C2.6198 9.76296 3.68243 8.68499 4.99636 8.68499C5.25483 8.68499 5.50613 8.72826 5.73948 8.80397V6.85354V6.15052C5.49177 6.11447 5.24406 6.09644 4.98918 6.09644C3.5496 6.09644 2.20336 6.69851 1.24125 7.78008C0.512485 8.59847 0.0780985 9.64398 0.00988912 10.7364C-0.0798601 12.1749 0.444276 13.5412 1.46024 14.5507C1.61102 14.6985 1.76538 14.8355 1.93052 14.9617C2.80288 15.6359 3.86552 16 4.98918 16C5.24406 16 5.49177 15.982 5.73948 15.9459C6.78775 15.7909 7.75345 15.3078 8.51812 14.5507C9.4551 13.6205 9.97564 12.384 9.97923 11.068L9.96487 5.22758C10.4136 5.57368 10.9019 5.8621 11.426 6.08202C12.2409 6.42812 13.1097 6.60478 14 6.60117V4.70482V4.0018C14 4.00901 13.9928 4.00901 13.9928 4.00901Z" fill="white"/>
</svg>
